<svg xmlns="http://www.w3.org/2000/svg" viewBox="0 0 1600 920" width="100%" height="100%" style="background-color: #ffffff; font-family: -apple-system, BlinkMacSystemFont, 'Segoe UI', Roboto, Helvetica, Arial, sans-serif;">
  <defs>
    <style>
      .title { font-size: 38px; font-weight: 700; fill: #0f172a; letter-spacing: -0.5px; }
      .subtitle { font-size: 16px; font-weight: 600; fill: #2563eb; letter-spacing: 2px; text-transform: uppercase; }
      .tagline { font-size: 16px; font-weight: 400; fill: #334155; font-style: italic; }
      
      .pillar-header { font-size: 24px; font-weight: 800; fill: #020617; letter-spacing: 0.8px; }
      .pillar-caption { font-size: 13px; font-weight: 500; fill: #0f172a; }
      
      .card-text { font-size: 14px; font-weight: 650; fill: #020617; }
      .card-subtext { font-size: 12px; font-weight: 450; fill: #0f172a; }
      .highlight-text { font-size: 14px; font-weight: 750; fill: #172554; }
      .footer-text { font-size: 19px; font-weight: 700; fill: #0f172a; letter-spacing: -0.2px; }
      .footer-sub { font-size: 12.5px; font-weight: 400; fill: #475569; }
      .legend-title { font-size: 10px; font-weight: 700; fill: #1e3a8a; letter-spacing: 0.5px; }
      .legend-text { font-size: 11.5px; font-weight: 450; fill: #0f172a; }
      .section-label { font-size: 10.5px; font-weight: 750; fill: #0f172a; letter-spacing: 0.9px; text-transform: uppercase; }
      .execution-cards .card-text { font-size: 13px; }
      .execution-cards .card-subtext { font-size: 11px; }
      
      .pillar-bg { fill: #f8fafc; stroke: #e2e8f0; stroke-width: 1.5; rx: 12px; }
      .pillar-header-bg { fill: #ffffff; stroke: #cbd5e1; stroke-width: 1; rx: 8px; }
      
      .card-bg { fill: #ffffff; stroke: #cbd5e1; stroke-width: 1.2; rx: 8px; }
      .card-core-bg { fill: #ffffff; stroke: #2563eb; stroke-width: 1.4; rx: 8px; }
      .card-highlight-bg { fill: #eff6ff; stroke: #1d4ed8; stroke-width: 2; rx: 8px; }
      .card-dashed-bg { fill: #ffffff; stroke: #94a3b8; stroke-width: 1.4; stroke-dasharray: 4 3; rx: 8px; }
      
      .badge-core { fill: #2563eb; rx: 4px; }
      .badge-text { font-size: 8.5px; font-weight: 700; fill: #ffffff; letter-spacing: 0.4px; }
      
      .icon-stroke-dark { stroke: #475569; stroke-width: 1.8; stroke-linecap: round; stroke-linejoin: round; fill: none; }
      .icon-stroke-blue { stroke: #2563eb; stroke-width: 1.8; stroke-linecap: round; stroke-linejoin: round; fill: none; }
    </style>
  </defs>

  <!-- ================= HEADER SECTION ================= -->
  <g transform="translate(80, 30)">
    <text x="720" y="28" text-anchor="middle" class="title">OpenGEO DSCE</text>
    <text x="720" y="56" text-anchor="middle" class="subtitle">Discovery  ·  Semantic  ·  Context  ·  Execution</text>
    <text x="720" y="82" text-anchor="middle" class="tagline">"An extensible architecture for publisher-owned semantic interoperability."</text>
    
    <line x1="220" y1="98" x2="1220" y2="98" stroke="#e2e8f0" stroke-width="1.5" />
    <circle cx="720" cy="98" r="4" fill="#2563eb" />
  </g>

  <!-- ================= MAIN LAYOUT (4 PILLARS - TIGHTENED HEIGHT: 615px) ================= -->

  <!-- ================= PILLAR 1: DISCOVERY ================= -->
  <g transform="translate(80, 150)">
    <rect x="0" y="0" width="335" height="615" class="pillar-bg" />
    
    <!-- Header Block -->
    <g transform="translate(12, 12)">
      <rect x="0" y="0" width="311" height="52" class="pillar-header-bg" />
      <text x="16" y="25" class="pillar-header">DISCOVERY</text>
      <text x="16" y="43" class="pillar-caption">How intelligent systems discover resources</text>
    </g>

    <!-- Cards Container -->
    <g transform="translate(12, 72)">
      <!-- Search Engine Optimisations -->
      <g transform="translate(0, 0)">
        <rect x="0" y="0" width="311" height="62" class="card-bg" />
        <circle cx="32" cy="31" r="14" fill="#f1f5f9" />
        <circle cx="30" cy="29" r="5" class="icon-stroke-dark" />
        <line x1="34" y1="33" x2="39" y2="38" class="icon-stroke-dark" />
        <text x="56" y="27" class="card-text">Search Engine Optimisations</text>
        <text x="56" y="42" class="card-subtext">Traditional crawler &amp; web indexing baseline</text>
      </g>

      <!-- Search Engines -->
      <g transform="translate(0, 68)">
        <rect x="0" y="0" width="311" height="62" class="card-bg" />
        <circle cx="32" cy="31" r="14" fill="#f1f5f9" />
        <circle cx="32" cy="31" r="6.5" class="icon-stroke-dark" />
        <ellipse cx="32" cy="31" rx="2.5" ry="6.5" class="icon-stroke-dark" />
        <line x1="25.5" y1="31" x2="38.5" y2="31" class="icon-stroke-dark" />
        <text x="56" y="27" class="card-text">Search Engines</text>
        <text x="56" y="42" class="card-subtext">Google, Bing &amp; web search discovery</text>
      </g>

      <!-- llms.txt (OPENGEO CORE) -->
      <g transform="translate(0, 136)">
        <rect x="0" y="0" width="311" height="68" class="card-core-bg" />
        <rect x="221" y="6" width="78" height="15" class="badge-core" />
        <text x="260" y="17" text-anchor="middle" class="badge-text">OPENGEO CORE</text>
        
        <circle cx="32" cy="34" r="14" fill="#eff6ff" />
        <path d="M28 26 H33 L37 31 V42 H28 Z" class="icon-stroke-blue" />
        <line x1="30" y1="34" x2="35" y2="34" class="icon-stroke-blue" />
        <line x1="30" y1="38" x2="34" y2="38" class="icon-stroke-blue" />
        <text x="56" y="31" class="card-text">llms.txt</text>
        <text x="56" y="46" class="card-subtext">Standardized Markdown manifest</text>
      </g>

      <!-- geo.txt (OPENGEO CORE) -->
      <g transform="translate(0, 210)">
        <rect x="0" y="0" width="311" height="68" class="card-core-bg" />
        <rect x="221" y="6" width="78" height="15" class="badge-core" />
        <text x="260" y="17" text-anchor="middle" class="badge-text">OPENGEO CORE</text>
        
        <circle cx="32" cy="34" r="14" fill="#eff6ff" />
        <circle cx="32" cy="34" r="2" fill="#2563eb" />
        <path d="M28 30 A5 5 0 0 1 36 30" class="icon-stroke-blue" />
        <path d="M25 27 A9 9 0 0 1 39 27" class="icon-stroke-blue" />
        <text x="56" y="31" class="card-text">geo.txt</text>
        <text x="56" y="46" class="card-subtext">Generative engine manifest</text>
      </g>

      <!-- ARD (OPENGEO CORE) -->
      <g transform="translate(0, 284)">
        <rect x="0" y="0" width="311" height="68" class="card-core-bg" />
        <rect x="221" y="6" width="78" height="15" class="badge-core" />
        <text x="260" y="17" text-anchor="middle" class="badge-text">OPENGEO CORE</text>
        
        <circle cx="32" cy="34" r="14" fill="#eff6ff" />
        <rect x="26" y="27" width="12" height="14" rx="2" class="icon-stroke-blue" />
        <line x1="29" y1="31" x2="35" y2="31" class="icon-stroke-blue" />
        <line x1="29" y1="35" x2="35" y2="35" class="icon-stroke-blue" />
        <text x="56" y="31" class="card-text">ARD</text>
        <text x="56" y="46" class="card-subtext">Agent Resource Discovery protocol</text>
      </g>

      <!-- HTML Alternate Links (OPENGEO CORE) -->
      <g transform="translate(0, 358)">
        <rect x="0" y="0" width="311" height="68" class="card-core-bg" />
        <rect x="221" y="6" width="78" height="15" class="badge-core" />
        <text x="260" y="17" text-anchor="middle" class="badge-text">OPENGEO CORE</text>
        
        <circle cx="32" cy="34" r="14" fill="#eff6ff" />
        <path d="M28 37 L26 39 A3 3 0 0 1 22 35 L24 33" class="icon-stroke-blue" />
        <path d="M36 33 L38 31 A3 3 0 0 1 42 35 L40 37" class="icon-stroke-blue" />
        <line x1="29" y1="37" x2="35" y2="31" class="icon-stroke-blue" />
        <text x="56" y="31" class="card-text">HTML Alternate Links</text>
        <text x="56" y="46" class="card-subtext">&lt;link rel="alternate" type="..."&gt;</text>
      </g>

      <!-- FUTURE EXTENSION BOX (DISCOVERY) -->
      <g transform="translate(0, 478)">
        <rect x="0" y="0" width="311" height="52" class="card-dashed-bg" />
        <circle cx="32" cy="26" r="12" fill="#f8fafc" stroke="#cbd5e1" stroke-width="1.2" />
        <path d="M32 21 V31 M27 26 H37" stroke="#94a3b8" stroke-width="1.6" stroke-linecap="round" />
        <text x="56" y="24" class="card-text" fill="#64748b">Future Discovery Standard</text>
        <text x="56" y="37" class="card-subtext" fill="#94a3b8">Extensible publisher discovery link</text>
      </g>
    </g>
  </g>

  <!-- Connector Line 1 to 2 -->
  <line x1="415" y1="450" x2="445" y2="450" stroke="#cbd5e1" stroke-width="1.5" stroke-dasharray="4 3" />

  <!-- ================= PILLAR 2: SEMANTIC ================= -->
  <g transform="translate(445, 150)">
    <rect x="0" y="0" width="335" height="615" class="pillar-bg" />
    
    <!-- Header Block -->
    <g transform="translate(12, 12)">
      <rect x="0" y="0" width="311" height="52" class="pillar-header-bg" />
      <text x="16" y="25" class="pillar-header">SEMANTIC</text>
      <text x="16" y="43" class="pillar-caption">How publisher knowledge is represented</text>
    </g>

    <!-- Cards Container -->
    <g transform="translate(12, 72)">
      <!-- AI Twins (OPENGEO CORE) -->
      <g transform="translate(0, 0)">
        <rect x="0" y="0" width="311" height="68" class="card-core-bg" />
        <rect x="221" y="6" width="78" height="15" class="badge-core" />
        <text x="260" y="17" text-anchor="middle" class="badge-text">OPENGEO CORE</text>
        
        <circle cx="32" cy="34" r="14" fill="#eff6ff" />
        <circle cx="28" cy="30" r="3.5" class="icon-stroke-blue" />
        <circle cx="36" cy="38" r="3.5" class="icon-stroke-blue" />
        <line x1="32" y1="32" x2="32" y2="36" class="icon-stroke-blue" />
        <text x="56" y="31" class="card-text">AI Twins</text>
        <text x="56" y="46" class="card-subtext">Digital entity representations</text>
      </g>

      <!-- OKF -->
      <g transform="translate(0, 74)">
        <rect x="0" y="0" width="311" height="62" class="card-bg" />
        <circle cx="32" cy="31" r="14" fill="#f1f5f9" />
        <rect x="27" y="24" width="10" height="13" rx="2" class="icon-stroke-dark" />
        <circle cx="32" cy="30.5" r="2" class="icon-stroke-dark" />
        <text x="56" y="27" class="card-text">OKF</text>
        <text x="56" y="42" class="card-subtext">Open Knowledge Format specification</text>
      </g>

      <!-- JSON-LD -->
      <g transform="translate(0, 142)">
        <rect x="0" y="0" width="311" height="62" class="card-bg" />
        <circle cx="32" cy="31" r="14" fill="#f1f5f9" />
        <path d="M28 27 L24 31 L28 35" class="icon-stroke-dark" />
        <path d="M36 27 L40 31 L36 35" class="icon-stroke-dark" />
        <line x1="34" y1="26" x2="30" y2="36" class="icon-stroke-dark" />
        <text x="56" y="27" class="card-text">JSON-LD</text>
        <text x="56" y="42" class="card-subtext">Structured Linked Data schemas</text>
      </g>

      <!-- PUBLISHER APIs -->
      <g transform="translate(0, 210)">
        <rect x="0" y="0" width="311" height="62" class="card-bg" />
        <circle cx="32" cy="31" r="14" fill="#f1f5f9" />
        <rect x="26" y="26" width="12" height="10" rx="2" class="icon-stroke-dark" />
        <line x1="32" y1="36" x2="32" y2="38" class="icon-stroke-dark" />
        <line x1="28" y1="38" x2="36" y2="38" class="icon-stroke-dark" />
        <text x="56" y="27" class="card-text">Publisher APIs</text>
        <text x="56" y="42" class="card-subtext">Dynamic, publisher-owned data endpoints</text>
      </g>

      <!-- Semantic Projection (HIGHLIGHTED OPENGEO CONCEPT) -->
      <g transform="translate(0, 278)">
        <rect x="0" y="0" width="311" height="252" class="card-highlight-bg" />
        <rect x="0" y="12" width="4" height="228" rx="2" fill="#2563eb" />
        
        <rect x="201" y="8" width="98" height="15" rx="7.5" fill="#2563eb" />
        <text x="250" y="19" text-anchor="middle" font-size="9" font-weight="700" fill="#ffffff" letter-spacing="0.5">OPENGEO CORE</text>

        <text x="16" y="38" class="highlight-text" style="font-size: 20px; font-weight: 800;">Semantic Projection</text>
        <text x="16" y="61" class="card-subtext" style="font-size: 13.5px; font-weight: 600;">One source. Projected for every experience.</text>

        <rect x="14" y="78" width="283" height="154" rx="8" fill="#ffffff" stroke="#bfdbfe" stroke-width="1" />

        <!-- Canonical source branching into experience-specific surfaces -->
        <g transform="translate(0, 35)">
          <path d="M57 107 H80 M80 107 C94 107 98 88 116 88 M80 107 C94 107 98 127 116 127 M80 107 C148 107 178 88 216 88 M80 107 C148 107 178 127 216 127" fill="none" stroke="#60a5fa" stroke-width="1.5" stroke-linecap="round" />
          <circle cx="80" cy="107" r="3" fill="#2563eb" />

          <!-- Canonical source -->
          <circle cx="38" cy="107" r="19" fill="#dbeafe" />
          <path d="M31 96 H40 L45 101 V119 H31 Z" fill="#ffffff" stroke="#2563eb" stroke-width="1.5" stroke-linejoin="round" />
          <path d="M40 96 V102 H45 M34 107 H42 M34 112 H42" fill="none" stroke="#2563eb" stroke-width="1.1" stroke-linecap="round" />
          <text x="38" y="139" text-anchor="middle" font-size="9" font-weight="700" fill="#1e3a8a">SOURCE</text>

          <!-- Web surface -->
          <circle cx="130" cy="88" r="14" fill="#ffffff" stroke="#bfdbfe" stroke-width="1" />
          <rect x="122" y="82" width="16" height="12" rx="1.5" fill="none" stroke="#2563eb" stroke-width="1.4" />
          <line x1="122" y1="86" x2="138" y2="86" stroke="#2563eb" stroke-width="1.1" />
          <circle cx="125" cy="84" r="0.8" fill="#2563eb" />
          <text x="150" y="92" font-size="10" font-weight="650" fill="#0f172a">Web</text>

          <!-- Desktop surface -->
          <circle cx="230" cy="88" r="14" fill="#ffffff" stroke="#bfdbfe" stroke-width="1" />
          <rect x="222" y="81" width="16" height="11" rx="1.5" fill="none" stroke="#2563eb" stroke-width="1.4" />
          <path d="M230 92 V95 M226 95 H234" fill="none" stroke="#2563eb" stroke-width="1.3" stroke-linecap="round" />
          <text x="250" y="92" font-size="10" font-weight="650" fill="#0f172a">Desktop</text>

          <!-- Mobile surface -->
          <circle cx="130" cy="127" r="14" fill="#ffffff" stroke="#bfdbfe" stroke-width="1" />
          <rect x="125" y="118" width="10" height="18" rx="2" fill="none" stroke="#2563eb" stroke-width="1.4" />
          <circle cx="130" cy="133" r="0.8" fill="#2563eb" />
          <text x="150" y="131" font-size="10" font-weight="650" fill="#0f172a">Mobile</text>

          <!-- Spatial / VR surface -->
          <circle cx="230" cy="127" r="14" fill="#ffffff" stroke="#bfdbfe" stroke-width="1" />
          <path d="M221 124 Q230 120 239 124 L237 132 Q234 134 231 130 H229 Q226 134 223 132 Z" fill="none" stroke="#2563eb" stroke-width="1.4" stroke-linejoin="round" />
          <circle cx="226" cy="127" r="1.3" fill="#2563eb" />
          <circle cx="234" cy="127" r="1.3" fill="#2563eb" />
          <text x="250" y="131" font-size="10" font-weight="650" fill="#0f172a">Spatial</text>
        </g>

        <text x="155.5" y="219" text-anchor="middle" font-size="11" font-weight="650" fill="#1e3a8a" letter-spacing="0.2">CANONICAL KNOWLEDGE → PURPOSE-BUILT VIEWS</text>
      </g>
    </g>
  </g>

  <!-- Connector Line 2 to 3 -->
  <line x1="780" y1="450" x2="810" y2="450" stroke="#cbd5e1" stroke-width="1.5" stroke-dasharray="4 3" />

  <!-- ================= PILLAR 3: CONTEXT ================= -->
  <g transform="translate(810, 150)">
    <rect x="0" y="0" width="335" height="615" class="pillar-bg" />
    
    <!-- Header Block with OPENGEO CORE Badge -->
    <g transform="translate(12, 12)">
      <rect x="0" y="0" width="311" height="52" class="pillar-header-bg" />
      <rect x="221" y="6" width="78" height="15" class="badge-core" />
      <text x="260" y="17" text-anchor="middle" class="badge-text">OPENGEO CORE</text>

      <text x="16" y="25" class="pillar-header">CONTEXT</text>
      <text x="16" y="43" class="pillar-caption">Declarative inference signals</text>
    </g>

    <!-- Signal Cards Grid -->
    <g transform="translate(12, 72)">
      <!-- Card 1: Instructions -->
      <g transform="translate(0, 0)">
        <rect x="0" y="0" width="148" height="56" class="card-bg" />
        <rect x="9" y="10" width="3.5" height="36" rx="1.5" fill="#2563eb" />
        <text x="20" y="26" class="card-text">Instructions</text>
        <text x="20" y="40" class="card-subtext">System directives</text>
      </g>

      <!-- Card 2: Personas -->
      <g transform="translate(163, 0)">
        <rect x="0" y="0" width="148" height="56" class="card-bg" />
        <rect x="9" y="10" width="3.5" height="36" rx="1.5" fill="#8b5cf6" />
        <text x="20" y="26" class="card-text">Personas</text>
        <text x="20" y="40" class="card-subtext">Agent identity</text>
      </g>

      <!-- Card 3: Guidance -->
      <g transform="translate(0, 62)">
        <rect x="0" y="0" width="148" height="56" class="card-bg" />
        <rect x="9" y="10" width="3.5" height="36" rx="1.5" fill="#06b6d4" />
        <text x="20" y="26" class="card-text">Guidance</text>
        <text x="20" y="40" class="card-subtext">Behavior bounds</text>
      </g>

      <!-- Card 4: Audience -->
      <g transform="translate(163, 62)">
        <rect x="0" y="0" width="148" height="56" class="card-bg" />
        <rect x="9" y="10" width="3.5" height="36" rx="1.5" fill="#10b981" />
        <text x="20" y="26" class="card-text">Audience</text>
        <text x="20" y="40" class="card-subtext">Target scope</text>
      </g>

      <!-- Card 5: Affinity -->
      <g transform="translate(0, 124)">
        <rect x="0" y="0" width="148" height="56" class="card-bg" />
        <rect x="9" y="10" width="3.5" height="36" rx="1.5" fill="#f59e0b" />
        <text x="20" y="26" class="card-text">Affinity</text>
        <text x="20" y="40" class="card-subtext">Domain weight</text>
      </g>

      <!-- Card 6: Constraints -->
      <g transform="translate(163, 124)">
        <rect x="0" y="0" width="148" height="56" class="card-bg" />
        <rect x="9" y="10" width="3.5" height="36" rx="1.5" fill="#ef4444" />
        <text x="20" y="26" class="card-text">Constraints</text>
        <text x="20" y="40" class="card-subtext">Safety &amp; limits</text>
      </g>

      <!-- Card 7: Policies -->
      <g transform="translate(0, 186)">
        <rect x="0" y="0" width="148" height="56" class="card-bg" />
        <rect x="9" y="10" width="3.5" height="36" rx="1.5" fill="#64748b" />
        <text x="20" y="26" class="card-text">Policies</text>
        <text x="20" y="40" class="card-subtext">Governance rules</text>
      </g>

      <!-- Card 8: Tone -->
      <g transform="translate(163, 186)">
        <rect x="0" y="0" width="148" height="56" class="card-bg" />
        <rect x="9" y="10" width="3.5" height="36" rx="1.5" fill="#ec4899" />
        <text x="20" y="26" class="card-text">Tone</text>
        <text x="20" y="40" class="card-subtext">Expression style</text>
      </g>

      <!-- Publisher Context Signals Box -->
      <g transform="translate(0, 248)">
        <rect x="0" y="0" width="311" height="222" fill="#ffffff" stroke="#cbd5e1" stroke-width="1.2" stroke-dasharray="3 3" rx="8" />
        
        <text x="14" y="22" font-size="9.5" font-weight="700" fill="#475569" letter-spacing="0.5">PUBLISHER CONTEXT SIGNALS</text>
        
        <!-- Code Box for context.* -->
        <g transform="translate(14, 30)">
          <rect x="0" y="0" width="283" height="178" fill="#0f172a" rx="6" />
          <circle cx="14" cy="14" r="3" fill="#ef4444" />
          <circle cx="24" cy="14" r="3" fill="#f59e0b" />
          <circle cx="34" cy="14" r="3" fill="#10b981" />
          <text x="48" y="17" font-family="monospace" font-size="9" fill="#64748b">example implementation</text>

          <text x="14" y="38" font-family="monospace" font-size="11" fill="#38bdf8">context.<tspan fill="#f1f5f9">instructions</tspan></text>
          <text x="14" y="55" font-family="monospace" font-size="11" fill="#38bdf8">context.<tspan fill="#f1f5f9">constraints</tspan></text>
          <text x="14" y="72" font-family="monospace" font-size="11" fill="#38bdf8">context.<tspan fill="#f1f5f9">personas</tspan></text>
          <text x="14" y="89" font-family="monospace" font-size="11" fill="#38bdf8">context.<tspan fill="#f1f5f9">audience</tspan></text>
          <text x="14" y="106" font-family="monospace" font-size="11" fill="#38bdf8">context.<tspan fill="#f1f5f9">guidance</tspan></text>
          <text x="14" y="123" font-family="monospace" font-size="11" fill="#38bdf8">context.<tspan fill="#f1f5f9">affinity</tspan></text>
          <text x="14" y="140" font-family="monospace" font-size="11" fill="#38bdf8">context.<tspan fill="#f1f5f9">policies</tspan></text>
          <text x="14" y="157" font-family="monospace" font-size="11" fill="#38bdf8">context.<tspan fill="#f1f5f9">tone</tspan></text>
        </g>
      </g>

      <!-- FUTURE EXTENSION BOX (CONTEXT) -->
      <g transform="translate(0, 478)">
        <rect x="0" y="0" width="311" height="52" class="card-dashed-bg" />
        <circle cx="32" cy="26" r="12" fill="#f8fafc" stroke="#cbd5e1" stroke-width="1.2" />
        <path d="M32 21 V31 M27 26 H37" stroke="#94a3b8" stroke-width="1.6" stroke-linecap="round" />
        <text x="56" y="24" class="card-text" fill="#64748b">Future Signal Type</text>
        <text x="56" y="37" class="card-subtext" fill="#94a3b8">Extensible context signal slot</text>
      </g>
    </g>
  </g>

  <!-- Connector Line 3 to 4 -->
  <line x1="1145" y1="450" x2="1175" y2="450" stroke="#cbd5e1" stroke-width="1.5" stroke-dasharray="4 3" />

  <!-- ================= PILLAR 4: EXECUTION ================= -->
  <g transform="translate(1175, 150)">
    <rect x="0" y="0" width="335" height="615" class="pillar-bg" />
    
    <!-- Header Block -->
    <g transform="translate(12, 12)">
      <rect x="0" y="0" width="311" height="52" class="pillar-header-bg" />
      <text x="16" y="25" class="pillar-header">EXECUTION</text>
      <text x="16" y="43" class="pillar-caption">Where publisher knowledge is activated</text>
    </g>

    <!-- Cards Container -->
    <g transform="translate(12, 72)" class="execution-cards">
      <!-- SECTION 1: PROMINENT MODEL RUNTIMES -->
      <text x="0" y="9" class="section-label">AI Runtimes</text>

      <!-- Grid for Models (ChatGPT, Gemini, Claude, Perplexity, Grok) -->
      <g transform="translate(0, 15)">
        <!-- ChatGPT -->
        <g transform="translate(0, 0)">
          <rect x="0" y="0" width="311" height="38" class="card-bg" />
          <circle cx="20" cy="19" r="9" fill="#10a37f" />
          <circle cx="20" cy="19" r="3.5" fill="none" stroke="#ffffff" stroke-width="1.2" stroke-dasharray="3 1.5" />
          <text x="36" y="18" class="card-text" font-size="12">ChatGPT</text>
          <text x="36" y="29" class="card-subtext" font-size="9.5">OpenAI Model Engine</text>
        </g>

        <!-- Gemini -->
        <g transform="translate(0, 42)">
          <rect x="0" y="0" width="311" height="38" class="card-bg" />
          <circle cx="20" cy="19" r="9" fill="#1a73e8" />
          <path d="M20 13 Q20 19 26 19 Q20 19 20 25 Q20 19 14 19 Q20 19 20 13 Z" fill="#ffffff" />
          <text x="36" y="18" class="card-text" font-size="12">Gemini</text>
          <text x="36" y="29" class="card-subtext" font-size="9.5">Google AI Infrastructure</text>
        </g>

        <!-- Claude -->
        <g transform="translate(0, 84)">
          <rect x="0" y="0" width="311" height="38" class="card-bg" />
          <circle cx="20" cy="19" r="9" fill="#d97706" />
          <path d="M20 13 V25 M16 15 L24 23 M24 15 L16 23" stroke="#ffffff" stroke-width="1.4" stroke-linecap="round" />
          <text x="36" y="18" class="card-text" font-size="12">Claude</text>
          <text x="36" y="29" class="card-subtext" font-size="9.5">Anthropic Reasoning Engine</text>
        </g>

        <!-- Perplexity -->
        <g transform="translate(0, 126)">
          <rect x="0" y="0" width="311" height="38" class="card-bg" />
          <circle cx="20" cy="19" r="9" fill="#0f766e" />
          <path d="M16 15 L24 23 M24 15 L16 23 M20 13 V25" stroke="#ffffff" stroke-width="1.3" stroke-linecap="round" />
          <text x="36" y="18" class="card-text" font-size="12">Perplexity</text>
          <text x="36" y="29" class="card-subtext" font-size="9.5">Conversational Engine</text>
        </g>

        <!-- Grok -->
        <g transform="translate(0, 168)">
          <rect x="0" y="0" width="311" height="38" class="card-bg" />
          <circle cx="20" cy="19" r="9" fill="#0f172a" />
          <path d="M16 15 L24 23 M24 15 L16 23" stroke="#ffffff" stroke-width="1.4" stroke-linecap="round" />
          <text x="36" y="18" class="card-text" font-size="12">Grok</text>
          <text x="36" y="29" class="card-subtext" font-size="9.5">xAI Platform</text>
        </g>
      </g>

      <!-- Runtime to framework transition -->
      <rect x="-4" y="240" width="319" height="204" rx="8" fill="#f1f5f9" stroke="#dbe3ee" stroke-width="1" />
      <line x1="0" y1="228" x2="143" y2="228" stroke="#94a3b8" stroke-width="1.3" />
      <line x1="168" y1="228" x2="311" y2="228" stroke="#94a3b8" stroke-width="1.3" />
      <circle cx="155.5" cy="228" r="9" fill="#ffffff" stroke="#94a3b8" stroke-width="1.2" />
      <path d="M152 226 L155.5 230 L159 226" fill="none" stroke="#2563eb" stroke-width="1.6" stroke-linecap="round" stroke-linejoin="round" />

      <!-- SECTION 2: FRAMEWORKS & PROTOCOLS -->
      <text x="0" y="254" class="section-label">Execution Frameworks &amp; Protocols</text>

      <!-- MCP & A2A Combined -->
      <g transform="translate(0, 262)">
        <g transform="translate(0, 0)">
          <rect x="0" y="0" width="148" height="42" class="card-core-bg" />
          <rect x="72" y="4" width="68" height="13" class="badge-core" />
          <text x="106" y="13" text-anchor="middle" font-size="6.5" font-weight="800" fill="#ffffff" letter-spacing="0.25">OPENGEO CORE</text>
          <circle cx="18" cy="21" r="9" fill="#38bdf8" />
          <text x="18" y="24" text-anchor="middle" font-size="7.5" font-weight="800" fill="#ffffff">MCP</text>
          <text x="32" y="19" class="card-text" font-size="11">MCP</text>
          <text x="32" y="31" class="card-subtext" style="font-size: 9px;">Model Context Protocol</text>
        </g>
        <g transform="translate(163, 0)">
          <rect x="0" y="0" width="148" height="42" class="card-bg" />
          <circle cx="18" cy="21" r="9" fill="#6366f1" />
          <text x="18" y="24" text-anchor="middle" font-size="7.5" font-weight="800" fill="#ffffff">A2A</text>
          <text x="32" y="19" class="card-text" font-size="11">A2A Messaging</text>
          <text x="32" y="31" class="card-subtext" font-size="9">Agent Comms</text>
        </g>
      </g>

      <!-- ADK, LangChain, MAF Frameworks -->
      <g transform="translate(0, 310)">
        <g transform="translate(0, 0)">
          <rect x="0" y="0" width="311" height="38" class="card-bg" />
          <circle cx="18" cy="19" r="8.5" fill="#2563eb" />
          <text x="18" y="21.5" text-anchor="middle" font-size="7" font-weight="800" fill="#ffffff">ADK</text>
          <text x="34" y="18" class="card-text" font-size="11.5">ADK Framework</text>
          <text x="34" y="29" class="card-subtext" font-size="9">Agent Development Kit</text>
        </g>

        <g transform="translate(0, 42)">
          <rect x="0" y="0" width="311" height="38" class="card-bg" />
          <circle cx="18" cy="19" r="8.5" fill="#10b981" />
          <path d="M14 19 L16 16 L19 19 L21 16" fill="none" stroke="#ffffff" stroke-width="1.3" stroke-linecap="round" />
          <text x="34" y="18" class="card-text" font-size="11.5">LangChain Framework</text>
          <text x="34" y="29" class="card-subtext" font-size="9">Agentic Orchestration</text>
        </g>

        <g transform="translate(0, 84)">
          <rect x="0" y="0" width="311" height="38" class="card-bg" />
          <circle cx="18" cy="19" r="8.5" fill="#8b5cf6" />
          <text x="18" y="21.5" text-anchor="middle" font-size="6.5" font-weight="800" fill="#ffffff">MAF</text>
          <text x="34" y="18" class="card-text" font-size="11.5">MAF Framework</text>
          <text x="34" y="29" class="card-subtext" font-size="9">Multi-Agent Architecture</text>
        </g>
      </g>

      <!-- FUTURE EXTENSION BOX (EXECUTION) -->
      <g transform="translate(0, 478)">
        <rect x="0" y="0" width="311" height="52" class="card-dashed-bg" />
        <circle cx="32" cy="26" r="12" fill="#f8fafc" stroke="#cbd5e1" stroke-width="1.2" />
        <path d="M32 21 V31 M27 26 H37" stroke="#94a3b8" stroke-width="1.6" stroke-linecap="round" />
        <text x="56" y="24" class="card-text" fill="#64748b">Future Runtime / Framework</text>
        <text x="56" y="37" class="card-subtext" fill="#94a3b8">Extensible execution slot</text>
      </g>
    </g>
  </g>

  <!-- ================= BOTTOM FOOTER BANNER ================= -->
  <g transform="translate(80, 785)">
    <rect x="0" y="0" width="1440" height="95" rx="10" fill="#f8fafc" stroke="#e2e8f0" stroke-width="1.5" />
    <rect x="0" y="0" width="6" height="95" rx="3" fill="#2563eb" />

    <text x="28" y="35" class="footer-text">
      OpenGEO defines the architecture, not the implementation.
    </text>
    <text x="28" y="58" class="footer-sub">
      Existing and future technologies naturally fit into the DSCE (Discovery · Semantic · Context · Execution) ecosystem.
    </text>

    <!-- OpenGEO Core legend -->
    <g transform="translate(930, 17)">
      <rect x="0" y="0" width="454" height="61" rx="8" fill="#ffffff" stroke="#cbd5e1" stroke-width="1" />
      <rect x="14" y="12" width="92" height="17" class="badge-core" />
      <text x="60" y="24" text-anchor="middle" class="badge-text">OPENGEO CORE</text>
      <text x="119" y="24" class="legend-title">RECOMMENDED REFERENCE PATH</text>
      <text x="14" y="43" class="legend-text">Marks the recommended reference path for adopting DSCE.</text>
      <text x="14" y="56" class="legend-text">Alternative implementations remain valid.</text>
    </g>
  </g>

</svg>
